PathFileType	4	(X/Y/Z)	C:/Users/beibeiliu/ov580/test_trc\sequence.7_training_dense_right.trc
DataRate	CameraRate	NumFrames	NumMarkers	Units	OrigDataRate	OrigDataStartFrame	OrigNumFrames
120	120	21	19	mm	120	26	103
Frame#	Time	ThumbCMC			ThumbMCP			ThumbIP			ThumbTip			IndexMCP			IndexPIP			IndexTip			MiddleMCP			MiddlePIP			MiddleTip			RingMCP			RingPIP			RingTip			PinkyMCP			PinkyPIP			PinkyTip			BackHand1			BackHand2			BackHand3	
		X0	Y0	Z0	X1	Y1	Z1	X2	Y2	Z2	X3	Y3	Z3	X4	Y4	Z4	X5	Y5	Z5	X6	Y6	Z6	X7	Y7	Z7	X8	Y8	Z8	X9	Y9	Z9	X10	Y10	Z10	X11	Y11	Z11	X12	Y12	Z12	X13	Y13	Z13	X14	Y14	Z14	X15	Y15	Z15	X16	Y16	Z16	X17	Y17	Z17	X18	Y18	Z18	
25	0.208333	56.2115	53.2697	28.3263	45.3195	53.5674	8.38097	40.2424	56.2572	-9.25637	34.9993	61.1608	-28.5087	55.3356	20.4522	-25.7156	34.002	4.20832	-16.3882	38.1588	15.3097	11.2462	59.9128	-0.992985	-18.9828	38.8745	-10.2009	-2.99998	48.715	14.6237	22.5509	65.4105	-12.5041	-5.63341	45.2231	-8.97831	14.4422	55.7849	9.35068	27.2173	73.8436	-21.1169	5.41638	55.1764	-16.9444	20.4702	66.3202	4.56917	33.2614	99.6221	16.9948	20.6382	100.511	28.4365	44.4989	85.7075	44.2059	25.1966	
26	0.216667	59.3857	50.7925	30.1723	48.4836	52.5169	9.73662	41.1001	59.3982	-10.081	35.1293	65.8288	-27.0488	56.6004	22.6419	-25.514	36.3314	4.26898	-17.8484	35.9651	19.9272	10.1093	63.0344	4.13827	-19.6961	39.3601	-6.81521	-0.932764	49.2595	10.476	21.968	63.0992	-9.29188	-8.44281	45.214	-5.17204	11.7496	60.8192	11.1729	28.9955	73.2811	-20.9052	5.42462	54.4948	-10.8435	17.7289	65.969	6.79286	29.5276	98.0764	18.3289	17.4693	101.078	26.3349	44.1984	88.125	45.9397	26.3038	
27	0.225	59.6871	56.1924	33.1166	48.105	57.328	11.1286	44.1197	62.4545	-14.6775	36.0368	69.1523	-25.4509	59.4011	21.6349	-26.1981	37.5083	8.1051	-18.9857	37.8448	21.3909	10.6689	64.4581	5.56903	-19.7199	41.8648	-5.93318	-2.71797	50.336	17.2436	20.5571	71.5735	-7.84603	-6.94963	48.2166	-4.32712	9.37991	63.2455	11.3452	29.0507	77.5118	-17.1936	4.24404	58.1015	-15.0721	20.1034	68.8129	11.0327	29.1755	101.523	19.626	16.9486	102.504	33.4483	46.4794	89.5465	46.6888	22.7126	
28	0.233333	61.7394	55.7989	29.9727	51.3278	58.3553	6.46367	46.1867	62.0856	-11.5206	38.076	70.2806	-26.783	60.7033	25.1269	-29.6282	41.3283	10.0706	-21.0703	43.6529	22.9893	9.7346	68.5521	7.95061	-21.5169	46.3142	-2.39069	-7.21868	53.8613	16.9168	19.9774	73.4781	-4.97585	-8.76978	54.4958	-5.65387	9.40472	64.9945	13.35	26.4702	82.925	-12.7133	3.26689	63.0861	-9.64468	17.5924	71.6615	9.34385	31.9828	104.559	26.598	18.0737	105.102	35.2249	46.4063	89.2764	51.8987	21.3407	
29	0.241667	63.2054	55.6585	30.2222	51.2022	55.6549	7.06089	44.3884	62.2052	-16.3945	40.3842	65.7209	-34.159	69.5408	24.3137	-30.7758	52.5662	8.22198	-23.6888	50.9572	17.8001	4.74758	78.3821	9.33266	-24.0872	58.7716	-3.20302	-6.90005	60.4992	20.0093	16.4449	87.1057	-0.0776328	-10.294	64.9539	-3.00913	7.31348	72.7663	18.5673	23.709	95.7553	-5.98235	0.960933	74.8463	-7.01785	16.7137	79.8512	12.1435	30.9896	110.405	33.3208	15.1034	109.977	42.0669	44.3789	89.1768	57.6112	23.5392	
30	0.25	64.1193	58.1674	23.0262	53.0761	54.3563	0.536678	47.4378	53.7062	-19.3325	41.9224	54.1409	-35.9288	76.2534	32.4698	-34.7386	68.5493	7.96639	-24.8852	63.5745	16.4544	1.48304	91.5898	17.2925	-26.675	74.7224	-1.27853	-10.345	73.848	19.4096	13.6458	101.285	7.55601	-14.6134	80.7303	1.08142	2.02473	86.4387	23.3884	22.1836	110.415	6.28808	-3.101	90.7096	1.83547	9.57505	89.6478	20.2881	24.1745	116.925	46.7097	12.6833	111.69	55.26	37.6292	91.6131	65.9608	19.3777	
31	0.258333	64.0496	56.7615	20.7235	53.5742	47.3357	-5.08193	48.3238	43.6295	-23.3775	40.7802	39.6448	-42.2548	85.8583	36.1431	-36.4784	79.8048	8.52294	-26.8461	77.0824	19.2031	0.758674	101.718	23.3782	-30.7131	92.4653	2.0477	-13.0976	81.5923	23.6827	11.869	111.459	18.2745	-17.9336	97.6122	6.72915	1.51413	90.914	26.9974	16.4981	125.226	19.5063	-5.76222	107.224	9.4853	6.02495	98.2545	29.7682	19.1641	115.553	61.4565	6.78678	108.238	71.745	34.3548	90.8993	71.6266	14.6965	
32	0.266667	59.5889	52.3196	21.8749	51.9403	36.7739	-3.7707	45.5522	29.4469	-23.4021	41.6848	21.3168	-39.5721	85.5188	35.7546	-37.8179	85.8356	7.20956	-24.4432	81.6667	18.4431	-0.652422	103.888	31.5442	-31.3191	99.2787	5.60639	-13.7606	92.0323	24.5189	12.1306	117.949	28.7923	-20.2959	107.694	12.0338	-1.75892	99.7723	33.191	17.2789	129.839	34.1946	-10.5915	120.749	16.7055	5.93205	105.078	37.2373	17.704	112.728	72.5754	4.23642	106.845	77.9767	29.4186	84.7127	73.8618	8.59947	
33	0.275	61.6039	44.6525	23.2152	52.4	26.4263	6.97661	45.2411	15.3486	-11.6006	36.089	6.18331	-28.2752	81.3172	24.4515	-36.8852	90.574	3.55892	-22.6772	87.8457	18.3887	2.97664	104.704	30.429	-30.2551	105.515	4.6956	-12.4462	94.3148	21.12	12.4116	119.058	26.8608	-21.1884	114.006	13.0185	-0.117506	105.135	31.4126	17.2065	129.682	34.9421	-13.6218	123.773	19.479	4.15479	107.838	38.1458	21.1421	104.688	73.9434	0.433482	98.879	78.4651	24.4778	74.9006	68.1144	11.7695	
34	0.283333	62.3596	39.7718	25.527	49.6146	19.8477	11.8684	43.949	9.68056	-0.87843	27.7059	-1.90158	-11.9008	79.6759	19.3583	-31.2161	86.4069	-3.6139	-13.2486	84.0896	13.75	8.02424	94.8293	17.3662	-29.2772	102.192	-0.458339	-9.30528	92.536	22.1774	14.7344	111.333	22.1754	-21.3809	112.166	9.28885	-0.00169637	98.7287	31.379	17.557	124.523	29.8975	-14.4243	121.368	17.0746	5.5466	106.021	33.3678	18.7991	102.775	67.0029	0.703861	97.3795	74.3111	26.4597	73.6319	62.3847	10.5086	
35	0.291667	60.7287	41.0458	34.2996	43.7947	21.1716	18.7383	30.3706	10.9231	9.98166	19.2269	2.7231	0.563387	65.1504	9.7311	-25.8137	77.6235	-6.60434	-10.6684	74.8791	10.1486	14.043	86.3414	8.94936	-24.9961	92.0646	-6.82484	-1.55202	89.4993	18.2302	19.1852	104.647	14.5348	-18.2537	99.1945	2.56306	7.47233	96.4173	28.5998	21.5834	115.236	17.0542	-12.6949	112.042	8.35461	5.79399	102.466	29.0358	20.7688	96.2902	61.1376	-0.600536	98.938	71.2441	27.6819	74.5688	62.0018	13.6156	
36	0.3	55.4885	44.7795	34.9696	38.8303	29.0844	27.6175	17.5181	21.9764	13.93	3.6776	17.5018	11.1128	54.7564	10.675	-19.7864	56.8201	-9.68166	-1.2007	65.6357	9.67088	18.5744	68.4127	4.3283	-17.5354	73.6542	-11.0918	4.81757	73.4406	16.2188	25.9741	88.5914	5.12424	-12.0184	85.0885	-2.26095	15.4843	85.6366	23.4416	25.1182	105.515	7.9616	-7.80129	97.9965	1.03347	18.4387	91.8345	20.2086	26.9449	95.1601	50.9862	1.72102	98.2363	63.5751	23.2791	74.0172	61.1094	18.5745	
37	0.308333	54.4858	49.4265	40.9795	30.2473	39.4034	32.4333	8.42121	35.7674	18.2927	-6.05063	34.5591	14.3582	41.2651	13.9103	-12.6073	40.5341	-7.25027	4.54693	48.0897	13.9248	27.0132	55.3673	1.48648	-11.6256	55.7569	-12.6667	13.7163	64.397	14.8194	30.5924	72.7234	-2.75538	-5.63249	66.7054	-5.52386	23.6702	72.0463	18.2061	31.5068	88.8661	-5.723	1.20685	80.2748	-5.1879	25.6448	80.5816	19.7285	31.3853	93.8703	42.489	3.8908	102.298	53.8876	23.3103	72.6324	56.6487	14.8375	
38	0.316667	53.9833	54.9462	41.8091	29.2267	49.1825	32.3765	8.41774	49.3897	18.2779	-5.51071	50.5487	15.5291	29.6186	13.8659	-7.98	22.4357	0.476355	13.5938	39.5446	18.9793	30.109	44.7581	0.318836	-5.43784	34.0557	-8.52718	20.3304	49.3235	17.3244	37.0451	53.5586	-7.67757	4.11811	49.4514	-9.0602	28.7816	60.6276	16.5918	37.5914	72.069	-11.9117	8.37893	63.6462	-12.1229	30.9994	68.5579	12.3594	37.7626	88.9084	29.9608	8.45961	98.5497	43.4465	26.3878	75.6692	52.9202	15.7559	
39	0.325	55.2817	60.7766	40.9452	30.9155	56.4967	26.9058	14.2981	56.9243	14.4575	-0.0899044	63.0064	11.052	26.3789	23.8903	-5.11365	9.3996	11.0837	15.2785	29.6407	26.4363	34.8174	29.6588	3.97508	0.341374	21.6227	-0.719487	29.3732	44.1056	19.9123	40.4911	40.9353	-10.1529	12.6442	34.4165	-2.07656	36.6663	54.0353	18.3391	42.1994	54.0607	-13.566	16.9589	46.7171	-8.57799	40.8582	62.0343	12.8629	44.332	85.9765	17.2222	12.5059	100.258	30.4578	33.2386	77.2738	47.5939	16.7782	
40	0.333333	61.9722	61.0445	35.8271	38.7884	62.1408	26.3426	21.6641	66.2242	12.4995	9.04591	71.2567	2.08291	24.1688	26.3083	-4.53848	6.6519	18.947	17.3083	30.1405	32.9958	35.3291	26.5095	4.66365	5.6285	11.9349	8.92495	29.878	38.6002	25.8335	43.4903	34.9419	-7.26957	18.5316	25.1381	5.032	41.5846	47.9652	18.833	49.1074	43.0855	-16.6414	27.9245	36.2809	-3.74227	49.1742	55.2237	12.9225	52.1955	79.731	11.2173	17.6448	98.6833	22.0649	35.3266	80.3687	37.8519	20.5201	
41	0.341667	69.1408	57.6025	34.2134	47.478	66.2568	23.1662	30.5979	66.0847	5.22236	17.152	74.7606	-7.39504	22.2868	29.1105	-3.72755	3.63548	30.0702	18.6499	24.8762	41.9309	35.3424	17.157	11.0541	9.86014	8.29957	18.1056	35.8976	38.9264	29.5149	44.2371	22.2995	-1.91144	25.635	17.0056	14.1286	43.7863	46.9158	23.0154	49.5839	33.5544	-13.1731	35.0023	27.771	8.00283	52.0045	48.4266	16.4304	55.7836	76.4621	3.69712	23.8394	91.367	13.0111	39.0151	81.1124	34.1641	20.7149	
42	0.35	72.909	51.8502	30.1288	53.5662	62.1019	17.5676	36.9493	65.1571	-2.25426	25.1984	72.0817	-16.7632	17.6447	27.1134	-0.139888	2.83962	36.142	17.7358	25.8775	45.4808	34.1369	11.6928	13.5235	14.8869	3.43188	27.2944	36.2346	35.9291	36.2249	44.8667	16.7211	6.75665	27.9107	14.4637	25.0508	47.3528	40.3725	31.0897	48.9924	22.2606	-6.95868	42.5975	18.9009	13.8958	56.9443	45.7409	22.4934	56.199	68.3667	-1.16119	28.9234	85.8324	5.24249	42.7483	77.0157	24.7027	19.3784	
43	0.358333	75.6704	46.1682	25.5807	57.4171	53.1417	10.6123	43.2862	55.6162	-7.45112	32.4885	59.3211	-21.6963	19.2181	24.5601	-1.21914	3.64601	47.0365	14.7449	27.1374	51.3621	28.8364	11.0532	17.1137	14.1395	2.51659	41.3733	30.8024	32.3311	43.2894	40.8328	8.95545	10.862	30.0481	12.7199	35.9736	45.1569	37.896	32.0595	50.4861	9.49987	3.07037	47.2482	14.4318	26.4435	54.1955	40.139	26.1061	54.9631	57.6041	-5.06874	35.2625	77.191	-0.992866	47.6115	73.9383	13.4657	26.3278	
44	0.366667	72.309	31.8999	24.5485	61.4521	40.6408	5.75512	48.4683	41.2145	-13.5813	38.4007	43.4027	-31.0827	14.6844	22.8712	-7.12913	5.7589	45.9437	2.28524	29.3687	47.7803	23.1364	5.89855	20.194	9.92592	2.82146	44.8949	24.8046	33.4463	43.1478	34.4562	1.6413	19.3987	28.9875	12.1672	42.9442	37.7932	35.6356	34.1843	45.1862	5.19148	12.5155	43.3249	12.8752	34.7652	50.2324	35.9006	28.2508	47.3892	43.7886	-10.795	38.8091	67.9018	-3.86579	57.2029	69.0207	4.99894	28.3565	
45	0.375	74.9145	22.3901	23.5881	65.5497	26.1842	-1.12728	57.1171	23.7823	-22.2605	49.6386	23.5602	-40.7538	21.2996	10.6808	-9.86446	13.4825	39.3669	-10.0336	36.6951	43.3187	11.2628	8.88539	14.6459	1.59059	6.49214	42.8795	6.6856	34.9622	40.3218	25.8109	5.02135	15.4949	20.3728	13.9379	42.4454	25.546	37.4278	34.148	36.3589	-0.521543	17.1157	38.4275	10.361	36.1183	36.5702	36.0417	29.5935	45.8625	40.9337	-10.2072	41.439	60.7809	-7.94638	63.2366	65.9987	-3.55446	27.5844	
